# 3ds Max Wavefront OBJ Exporter v0.97b - (c)2007 guruware
# File Created: 13.01.2015 01:47:09

#
# object Magazine_30rd002
#

v  80.1777 25.3107 -26.3251
v  105.6874 24.9700 -212.5079
v  80.3483 24.9700 -212.5079
v  105.6874 25.5611 -213.8285
v  80.3483 25.5611 -213.8285
v  80.3483 25.5611 -213.1799
v  105.6874 25.5611 -213.1799
v  114.1169 23.7496 -0.7965
v  114.1169 25.3198 -3.4088
v  80.1777 25.3198 -3.4088
v  80.1777 23.7496 -0.7965
v  80.1777 21.2389 -0.7965
v  114.1169 22.3395 -0.7965
v  80.1777 25.3107 -12.9073
v  80.1777 20.0063 -12.9073
v  80.1777 20.9986 -3.4088
v  80.3483 24.9684 -213.1565
v  105.6874 24.9700 -213.1565
v  80.3281 15.7014 -213.1565
v  80.1700 15.7014 -26.3251
v  113.8017 21.6628 -26.3251
v  114.4003 22.3498 -13.1553
v  114.9348 13.5377 -13.8934
v  114.7540 13.5377 -26.3251
v  80.3281 11.3740 -213.1565
v  78.0211 9.0517 -213.1565
v  78.0211 18.0237 -213.1565
v  77.8505 18.0237 -26.3251
v  75.8109 18.0237 -213.1565
v  75.6403 18.0237 -26.3251
v  80.1700 11.3740 -26.3251
v  80.1777 7.0692 -12.9073
v  113.1341 24.2505 -9.9073
v  111.1169 24.9498 -12.9073
v  110.3475 24.6897 -26.3251
v  113.8016 21.6628 -213.1565
v  110.3587 24.5537 -213.1565
v  115.0477 13.5377 -213.1565
v  114.9871 13.5377 -213.1565
v  75.6403 9.0517 -26.3251
v  80.1777 1.7647 -26.3251
v  80.3483 2.1054 -212.5079
v  105.6874 2.1054 -212.5079
v  105.6874 1.5143 -213.8285
v  105.6874 1.5143 -213.1799
v  80.3483 1.5143 -213.1799
v  80.3483 1.5143 -213.8285
v  114.1169 3.3258 -0.7965
v  80.1777 3.3258 -0.7965
v  80.1777 1.7556 -3.4088
v  114.1169 1.7556 -3.4088
v  114.1169 4.7359 -0.7965
v  80.1777 5.8365 -0.7965
v  80.1777 6.0768 -3.4088
v  80.1777 1.7647 -12.9073
v  80.3483 2.1070 -213.1565
v  105.6874 2.1054 -213.1565
v  113.8017 5.4127 -26.3251
v  114.4003 4.7256 -13.1553
v  77.8505 9.0517 -26.3251
v  75.8109 9.0517 -213.1565
v  111.1169 2.1257 -12.9073
v  113.1341 2.8249 -9.9073
v  110.3475 2.3858 -26.3251
v  110.3587 2.5217 -213.1565
v  113.8016 5.4127 -213.1565
v  113.7805 23.5678 -0.9943
v  80.4454 23.5678 -0.9943
v  80.4454 25.1101 -3.5600
v  113.7805 25.1101 -3.5600
v  113.7805 22.1828 -0.9943
v  80.4454 21.1018 -0.9943
v  80.4454 20.8658 -3.5600
v  80.4454 19.8911 -12.8895
v  80.4454 25.1011 -12.8895
v  113.4558 21.5148 -26.0685
v  114.3744 13.5441 -26.0685
v  114.5839 13.5377 -13.8580
v  114.0589 22.1930 -13.1331
v  80.4454 25.1011 -26.0685
v  110.8339 24.7466 -12.8895
v  112.8152 24.0598 -9.9429
v  110.0782 24.4912 -26.0685
v  113.7805 3.5076 -0.9943
v  113.7805 1.9653 -3.5600
v  80.4454 1.9653 -3.5600
v  80.4454 3.5076 -0.9943
v  80.4454 5.9736 -0.9943
v  113.7805 4.8926 -0.9943
v  80.4454 1.9743 -12.8895
v  80.4454 7.1843 -12.8895
v  80.4454 6.2096 -3.5600
v  113.4709 5.5573 -26.0685
v  114.0589 4.8824 -13.1331
v  112.8152 3.0156 -9.9429
v  110.8339 2.3288 -12.8895
v  110.0782 2.5843 -26.0685
v  80.4454 1.9743 -26.0685
# 98 vertices

vn 0.0197 0.9998 0.0004
vn 0.0594 0.9982 -0.0008
vn 0.0000 1.0000 -0.0018
vn 0.0000 1.0000 -0.0000
vn 0.0000 0.4923 0.8704
vn 0.0000 0.9786 0.2058
vn 0.0147 0.9663 0.2571
vn 0.0000 0.0000 1.0000
vn -1.0000 -0.0000 0.0000
vn -1.0000 0.0001 0.0002
vn -1.0000 0.0000 0.0000
vn -1.0000 0.0009 -0.0000
vn -1.0000 0.0018 -0.0004
vn 0.0000 0.7509 0.6605
vn 1.0000 0.0000 -0.0000
vn 1.0000 -0.0000 -0.0000
vn 0.0000 -0.7500 -0.6615
vn -0.0000 -0.7500 -0.6615
vn 0.0000 -0.7508 -0.6605
vn 0.0000 -0.7509 -0.6605
vn -1.0000 0.0007 -0.0003
vn -1.0000 0.0022 -0.0009
vn -1.0000 0.0005 0.0000
vn 0.8875 0.4602 -0.0224
vn 0.8151 0.5697 -0.1056
vn 0.9993 -0.0000 -0.0368
vn 1.0000 -0.0000 -0.0073
vn 0.0000 -0.0000 -1.0000
vn -0.0000 -0.0000 -1.0000
vn 0.0000 0.0000 -1.0000
vn 0.7094 0.7048 0.0006
vn 0.7076 0.7067 0.0006
vn 0.7075 0.7067 0.0006
vn -1.0000 -0.0005 0.0000
vn -1.0000 -0.0001 0.0002
vn 0.0246 0.9997 0.0034
vn 0.1949 0.9772 -0.0840
vn 0.2787 0.9602 0.0189
vn 0.3554 0.9346 -0.0174
vn 0.8720 0.4896 0.0005
vn 0.3836 0.9235 -0.0006
vn 0.0888 0.9961 -0.0000
vn -0.0000 0.0000 -1.0000
vn 1.0000 -0.0000 0.0016
vn 0.0000 -0.0000 1.0000
vn 0.0197 -0.9998 0.0004
vn -0.0000 -1.0000 -0.0018
vn 0.0594 -0.9982 -0.0008
vn 0.0000 -1.0000 0.0000
vn 0.0000 -0.4923 0.8704
vn 0.0147 -0.9663 0.2571
vn -0.0000 -0.9786 0.2058
vn -1.0000 -0.0018 -0.0004
vn -1.0000 -0.0009 -0.0000
vn 0.0000 -0.7509 0.6605
vn 0.0000 0.7500 -0.6615
vn 0.0000 0.7509 -0.6605
vn 0.0000 0.7508 -0.6605
vn -0.0000 0.7500 -0.6615
vn -1.0000 -0.0007 -0.0003
vn -1.0000 -0.0022 -0.0009
vn 0.8875 -0.4602 -0.0224
vn 0.8151 -0.5697 -0.1056
vn -0.0000 -1.0000 0.0000
vn 0.7094 -0.7048 0.0006
vn 0.7075 -0.7067 0.0006
vn 0.7076 -0.7067 0.0006
vn 0.0246 -0.9997 0.0034
vn 0.2787 -0.9602 0.0189
vn 0.1949 -0.9772 -0.0840
vn 0.3554 -0.9346 -0.0174
vn 0.3836 -0.9235 -0.0006
vn 0.8720 -0.4896 0.0005
vn 0.0888 -0.9961 -0.0000
vn -1.0000 0.0000 -0.0009
vn -0.0000 -0.4923 -0.8704
vn -0.0000 -0.4924 -0.8704
vn -0.0147 -0.9663 -0.2571
vn -0.0000 -0.9786 -0.2058
vn 1.0000 0.0000 0.0000
vn 1.0000 -0.0000 0.0000
vn -0.8901 -0.4535 0.0459
vn -0.9999 -0.0011 0.0172
vn -0.9993 -0.0004 0.0381
vn -0.8150 -0.5696 0.1065
vn -0.0246 -0.9997 -0.0034
vn -0.2788 -0.9602 -0.0187
vn -0.1949 -0.9772 0.0840
vn -0.0206 -0.9998 0.0000
vn -0.3500 -0.9361 0.0353
vn -0.0000 0.4924 -0.8704
vn 0.0000 0.9786 -0.2058
vn -0.0147 0.9663 -0.2571
vn -0.8899 0.4538 0.0456
vn -0.8151 0.5697 0.1056
vn -0.0246 0.9997 -0.0034
vn -0.1949 0.9772 0.0840
vn -0.2787 0.9602 -0.0189
vn -0.3487 0.9366 0.0353
vn -0.0206 0.9998 -0.0000
vn 0.5068 -0.0000 -0.8621
vn 0.0261 -0.8047 0.5931
vn 0.6081 -0.6804 -0.4090
vn 0.5068 -0.8596 0.0648
vn 0.3727 -0.7302 0.5726
vn 0.0999 -0.0770 0.9920
vn 0.0999 0.0770 0.9920
vn 0.3727 0.7302 0.5726
vn 0.5068 0.8596 0.0648
vn 0.6081 0.6804 -0.4090
vn 0.0261 0.8047 0.5931
vn -0.3986 0.9122 0.0953
vn -0.4044 0.9107 0.0838
vn -0.0663 0.0000 0.9978
vn -0.3986 -0.9122 0.0953
vn -0.4044 -0.9107 0.0838
vn -0.0000 0.0000 1.0000
# 117 vertex normals

vt 0.8688 0.3672 0.0000
vt 0.0099 0.5588 0.0000
vt 0.0099 0.3683 0.0000
vt 0.0038 0.5588 0.0000
vt 0.0038 0.3683 0.0000
vt 0.0068 0.3682 0.0000
vt 0.0068 0.5588 0.0000
vt 0.9866 0.6215 0.0000
vt 0.9745 0.6223 0.0000
vt 0.9745 0.3670 0.0000
vt 0.9866 0.3619 0.0000
vt 0.9983 0.3626 0.0000
vt 0.9932 0.6208 0.0000
vt 0.9307 0.3671 0.0000
vt 0.9307 0.3272 0.0000
vt 0.9745 0.3345 0.0000
vt 0.9866 0.3362 0.0000
vt 0.0038 0.3638 0.0000
vt 0.0068 0.3638 0.0000
vt 0.0068 0.5656 0.0000
vt 0.0037 0.5656 0.0000
vt 0.1519 0.1826 0.0000
vt 0.1519 0.1877 0.0000
vt 0.0417 0.1877 0.0000
vt 0.0417 0.1826 0.0000
vt 0.0068 0.2986 0.0000
vt 0.8687 0.2951 0.0000
vt 0.8688 0.6199 0.0000
vt 0.9296 0.6245 0.0000
vt 0.9295 0.6850 0.0000
vt 0.8687 0.6846 0.0000
vt 0.1520 0.0792 0.0000
vt 0.1620 0.0615 0.0000
vt 0.1620 0.1298 0.0000
vt 0.1520 0.1121 0.0000
vt 0.9804 0.1460 0.0000
vt 0.1716 0.1467 0.0000
vt 0.1716 0.1299 0.0000
vt 0.9804 0.1294 0.0000
vt 0.1716 0.1639 0.0000
vt 0.9804 0.1639 0.0000
vt 0.8687 0.2625 0.0000
vt 0.9305 0.2299 0.0000
vt 0.9446 0.6149 0.0000
vt 0.9307 0.5997 0.0000
vt 0.8688 0.5939 0.0000
vt 0.9999 0.1120 0.0000
vt 0.9900 0.1295 0.0000
vt 0.9296 0.6244 0.0000
vt 0.0069 0.6198 0.0000
vt 0.0069 0.5940 0.0000
vt 0.0010 0.0956 0.0000
vt 0.0012 0.0956 0.0000
vt 0.0213 0.1794 0.0000
vt 0.0064 0.1575 0.0000
vt 0.0067 0.6810 0.0000
vt 0.9804 0.0619 0.0000
vt 0.9999 0.0793 0.0000
vt 0.8681 0.9986 0.0000
vt 0.0092 0.9936 0.0000
vt 0.0095 0.8031 0.0000
vt 0.0034 0.8030 0.0000
vt 0.0064 0.8031 0.0000
vt 0.0061 0.9936 0.0000
vt 0.0031 0.9936 0.0000
vt 0.9863 0.7438 0.0000
vt 0.9859 0.9991 0.0000
vt 0.9739 0.9990 0.0000
vt 0.9743 0.7438 0.0000
vt 0.9928 0.7439 0.0000
vt 0.9975 0.9991 0.0000
vt 0.9743 0.1898 0.0000
vt 0.9743 0.2223 0.0000
vt 0.9305 0.1900 0.0000
vt 0.9863 0.2015 0.0000
vt 0.9864 0.2204 0.0000
vt 0.0065 0.1919 0.0000
vt 0.0096 0.1963 0.0000
vt 0.0066 0.1963 0.0000
vt 0.0035 0.1919 0.0000
vt 0.0034 0.7962 0.0000
vt 0.0064 0.7963 0.0000
vt 0.1519 0.0087 0.0000
vt 0.0417 0.0087 0.0000
vt 0.0417 0.0036 0.0000
vt 0.1519 0.0036 0.0000
vt 0.8686 0.1903 0.0000
vt 0.0067 0.2660 0.0000
vt 0.8685 0.7457 0.0000
vt 0.9294 0.7461 0.0000
vt 0.9804 0.0453 0.0000
vt 0.1716 0.0614 0.0000
vt 0.1716 0.0446 0.0000
vt 0.1716 0.0202 0.0000
vt 0.9804 0.0201 0.0000
vt 0.9300 0.9988 0.0000
vt 0.9304 0.7662 0.0000
vt 0.9443 0.7510 0.0000
vt 0.8685 0.7717 0.0000
vt 0.9900 0.0618 0.0000
vt 0.9293 0.7460 0.0000
vt 0.0065 0.7679 0.0000
vt 0.0066 0.7420 0.0000
vt 0.0064 0.0338 0.0000
vt 0.0213 0.0119 0.0000
vt 0.5654 -0.2729 0.0000
vt 0.5654 -0.0132 0.0000
vt 0.5775 -0.0184 0.0000
vt 0.5775 -0.2737 0.0000
vt 0.5588 -0.2721 0.0000
vt 0.5537 -0.0140 0.0000
vt 0.7222 -0.2049 0.0000
vt 0.7222 -0.1724 0.0000
vt 0.7661 -0.1651 0.0000
vt 0.7660 -0.2050 0.0000
vt 0.7101 -0.1998 0.0000
vt 0.7102 -0.1741 0.0000
vt 0.3927 -0.0226 0.0000
vt 0.3928 -0.0873 0.0000
vt 0.3320 -0.0876 0.0000
vt 0.3319 -0.0271 0.0000
vt 0.8279 -0.2051 0.0000
vt 0.6213 -0.0184 0.0000
vt 0.6213 -0.2511 0.0000
vt 0.6075 -0.2663 0.0000
vt 0.6832 -0.0186 0.0000
vt 0.6832 -0.2453 0.0000
vt 0.6224 -0.2758 0.0000
vt 0.6832 -0.2713 0.0000
vt 0.4194 -0.0133 0.0000
vt 0.4315 -0.0133 0.0000
vt 0.4319 -0.2685 0.0000
vt 0.4199 -0.2685 0.0000
vt 0.4083 -0.2686 0.0000
vt 0.4129 -0.0133 0.0000
vt 0.7224 -0.0277 0.0000
vt 0.7663 -0.0279 0.0000
vt 0.7662 -0.0678 0.0000
vt 0.7224 -0.0602 0.0000
vt 0.7104 -0.0394 0.0000
vt 0.7103 -0.0583 0.0000
vt 0.3930 -0.1484 0.0000
vt 0.3321 -0.1487 0.0000
vt 0.4757 -0.2683 0.0000
vt 0.4615 -0.0205 0.0000
vt 0.4754 -0.0356 0.0000
vt 0.5373 -0.0412 0.0000
vt 0.5376 -0.2680 0.0000
vt 0.4765 -0.0155 0.0000
vt 0.5372 -0.0152 0.0000
vt 1.0960 -0.0438 0.0000
vt 1.0960 -0.0332 0.0000
vt 1.0556 -0.0330 0.0000
vt 1.0556 -0.0440 0.0000
vt 2.1291 -0.0437 0.0000
vt 2.1291 -0.0333 0.0000
vt 1.0127 -0.0440 0.0000
vt 1.0127 -0.0330 0.0000
vt 1.0542 -0.0965 0.0000
vt 1.0102 -0.0965 0.0000
vt 1.0102 -0.1086 0.0000
vt 1.0542 -0.1086 0.0000
vt 1.2229 -0.1086 0.0000
vt 1.2229 -0.0965 0.0000
vt 1.4896 -0.0965 0.0000
vt 1.4896 -0.1086 0.0000
vt 1.6565 -0.1086 0.0000
vt 1.6565 -0.0965 0.0000
vt 1.7128 -0.1086 0.0000
vt 1.7128 -0.0965 0.0000
vt 1.7563 -0.1086 0.0000
vt 1.7563 -0.0965 0.0000
vt 2.0134 -0.0638 0.0000
vt 2.0134 -0.0742 0.0000
vt 2.0523 -0.0742 0.0000
vt 2.0523 -0.0638 0.0000
vt 1.9744 -0.0640 0.0000
vt 1.9744 -0.0740 0.0000
vt 1.0100 -0.0642 0.0000
vt 1.0100 -0.0738 0.0000
vt 1.4243 -0.1324 0.0000
vt 1.4417 -0.1324 0.0000
vt 1.4417 -0.1238 0.0000
vt 1.4243 -0.1238 0.0000
vt 1.4485 -0.1324 0.0000
vt 1.4485 -0.1238 0.0000
vt 1.2281 -0.1238 0.0000
vt 1.2281 -0.1324 0.0000
vt 1.0287 -0.1238 0.0000
vt 1.0287 -0.1324 0.0000
vt 1.0111 -0.1238 0.0000
vt 1.0111 -0.1324 0.0000
vt 0.2645 -0.2088 0.0000
vt 0.2645 -0.0267 0.0000
vt 0.0181 -0.0216 0.0000
vt 0.0181 -0.2139 0.0000
vt 0.2926 -0.0514 0.0000
vt 0.2927 -0.1841 0.0000
vt 0.8282 -0.0282 0.0000
vt 0.3002 -0.1177 0.0000
# 200 texture coords

g Magazine_30rd002
s 1
f 1/1/1 2/2/2 3/3/3 
f 4/4/4 5/5/4 6/6/4 7/7/4 
f 8/8/5 9/9/6 10/10/7 11/11/5 
f 11/11/5 12/12/8 13/13/8 8/8/5 
s 4
f 10/10/9 14/14/9 15/15/10 16/16/11 
f 11/11/11 10/10/9 16/16/11 12/17/11 
f 6/6/11 5/5/11 17/18/12 3/19/13 
s 2
f 2/2/14 7/7/14 6/6/14 3/3/14 
s 4
f 4/4/15 7/7/15 2/20/16 18/21/16 
s 2
f 17/22/17 5/23/18 4/24/19 18/25/20 
s 4
f 1/1/21 3/3/13 19/26/22 20/27/23 
s 1
f 21/28/24 22/29/25 23/30/26 24/31/27 
s 8
f 25/32/28 26/33/29 27/34/29 19/35/30 
s 1
f 28/36/4 27/37/4 29/38/4 30/39/4 
s 16
f 19/40/31 27/37/31 28/36/32 20/41/33 
s 4
f 15/15/10 20/27/23 31/42/34 32/43/35 
s 1
f 14/14/36 33/44/37 34/45/38 
f 14/14/36 34/45/38 35/46/39 1/1/1 
s 4
f 15/15/10 14/14/9 1/1/21 20/27/23 
s 2
f 20/47/8 28/48/8 30/39/8 
s 1
f 1/1/1 35/46/39 2/2/2 
f 22/49/25 34/45/38 33/44/37 
f 35/46/39 21/28/24 36/50/40 37/51/41 
f 34/45/38 22/49/25 21/28/24 35/46/39 
f 10/10/7 9/9/6 33/44/37 14/14/36 
s 8
f 38/52/29 39/53/29 37/54/30 36/55/29 
s 1
f 37/51/41 18/7/42 2/2/2 35/46/39 
s 4
f 3/3/13 17/6/12 19/26/22 
s 8
f 19/35/30 17/22/28 18/25/43 37/54/30 
s 1
f 36/50/40 21/28/24 24/31/27 38/56/44 
s 2
f 20/47/8 30/39/8 40/57/45 31/58/45 
s 1
f 41/59/46 42/60/47 43/61/48 
f 44/62/49 45/63/49 46/64/49 47/65/49 
f 48/66/50 49/67/50 50/68/51 51/69/52 
f 49/67/50 48/66/50 52/70/8 53/71/8 
s 4
f 50/72/11 54/73/11 32/43/35 55/74/11 
f 49/75/11 53/76/11 54/73/11 50/72/11 
f 46/77/11 42/78/53 56/79/54 47/80/11 
s 2
f 43/61/55 42/60/55 46/64/55 45/63/55 
s 4
f 44/62/16 57/81/15 43/82/15 45/63/16 
s 2
f 56/83/56 57/84/57 44/85/58 47/86/59 
s 4
f 41/87/60 31/42/34 25/88/61 42/78/53 
s 1
f 58/89/62 24/31/27 23/30/26 59/90/63 
f 60/91/64 40/57/64 61/92/64 26/93/64 
s 16
f 25/94/65 31/95/66 60/91/67 26/93/65 
s 1
f 55/96/68 62/97/69 63/98/70 
f 55/96/68 41/59/46 64/99/71 62/97/69 
s 4
f 32/43/35 31/42/34 41/87/60 55/74/11 
s 2
f 31/58/45 40/57/45 60/100/45 
s 1
f 41/59/46 43/61/48 64/99/71 
f 59/101/63 63/98/70 62/97/69 
f 64/99/71 65/102/72 66/103/73 58/89/62 
f 62/97/69 64/99/71 58/89/62 59/101/63 
f 50/68/51 55/96/68 63/98/70 51/69/52 
s 8
f 38/52/29 66/104/29 65/105/28 39/53/29 
s 1
f 65/102/72 64/99/71 43/61/48 57/63/74 
s 4
f 42/78/53 25/88/61 56/79/54 
s 8
f 25/32/28 65/105/28 57/84/29 56/83/28 
s 1
f 66/103/73 38/56/44 24/31/27 58/89/62 
s 8
f 19/35/30 39/53/29 25/32/28 
s 4
f 29/38/75 61/92/75 40/57/75 30/39/75 
s 1
f 67/106/76 68/107/77 69/108/78 70/109/79 
f 68/107/77 67/106/76 71/110/29 72/111/29 
s 4
f 69/112/80 73/113/80 74/114/15 75/115/15 
f 68/116/80 72/117/81 73/113/80 69/112/80 
s 1
f 76/118/82 77/119/83 78/120/84 79/121/85 
s 4
f 74/114/15 80/122/16 75/115/15 
s 1
f 75/123/86 81/124/87 82/125/88 
f 75/123/86 80/126/89 83/127/90 81/124/87 
f 79/128/85 82/125/88 81/124/87 
f 81/124/87 83/127/90 76/129/82 79/128/85 
f 69/108/78 75/123/86 82/125/88 70/109/79 
f 84/130/91 85/131/92 86/132/93 87/133/91 
f 87/133/91 88/134/29 89/135/29 84/130/91 
s 4
f 86/136/15 90/137/15 91/138/15 92/139/15 
f 87/140/80 86/136/15 92/139/15 88/141/16 
s 1
f 93/142/94 94/143/95 78/120/84 77/119/83 
f 90/144/96 95/145/97 96/146/98 
f 90/144/96 96/146/98 97/147/99 98/148/100 
f 94/149/95 96/146/98 95/145/97 
f 96/146/98 94/149/95 93/150/94 97/147/99 
f 86/132/93 85/131/92 95/145/97 90/144/96 
s off
f 13/151/101 71/152/101 67/153/101 8/154/101 
f 12/155/102 72/156/102 71/152/102 13/151/102 
f 9/157/103 8/154/103 67/153/103 70/158/103 
f 33/159/104 9/160/104 70/161/104 82/162/104 
f 33/159/105 82/162/105 79/163/105 22/164/105 
f 23/165/106 22/164/106 79/163/106 78/166/106 
f 23/165/107 78/166/107 94/167/107 59/168/107 
f 94/167/108 95/169/108 63/170/108 59/168/108 
f 85/171/109 51/172/109 63/170/109 95/169/109 
f 84/173/110 48/174/110 51/175/110 85/176/110 
f 84/173/101 89/177/101 52/178/101 48/174/101 
f 88/179/111 53/180/111 52/178/111 89/177/111 
f 32/181/112 54/182/112 92/183/112 91/184/112 
f 54/182/113 53/185/113 88/186/113 92/183/113 
f 91/184/114 74/187/114 15/188/114 32/181/114 
f 73/189/115 16/190/115 15/188/115 74/187/115 
f 72/191/116 12/192/116 16/190/116 73/189/116 
f 97/193/117 83/194/117 80/195/117 98/196/117 
f 76/197/45 83/194/45 97/193/45 93/198/45 
s 4
f 91/138/15 90/137/15 98/199/15 
f 91/138/15 98/199/15 80/122/16 74/114/15 
s 8
f 19/35/30 37/54/30 39/53/29 
f 39/53/29 65/105/28 25/32/28 
f 61/92/29 29/38/29 27/34/29 26/33/29 
s off
f 93/198/45 77/200/45 76/197/45 
# 85 polygons - 22 triangles

